<?xml version="1.0" encoding="UTF-8"?>
<svg id="Layer_1" data-name="Layer 1" xmlns="http://www.w3.org/2000/svg" viewBox="0 0 544 772.4">
  <defs>
    <style>
      .cls-1 {
        fill: #ed1c24;
      }

      .cls-1, .cls-2, .cls-3 {
        stroke-width: 0px;
      }

      .cls-2 {
        fill: #fff;
      }

      .cls-3 {
        fill: #fff;
      }
    </style>
  </defs>
  <g>
    <path class="cls-3" d="M.14,483.52h-.02c0,2.57,0,5.14,0,7.71,0,86.26,0,172.52.04,258.78,0,11.21,7.14,19.93,17.96,21.45,5.75.81,11.65.65,17.48.76,13.24.24,24.54-4.64,33.74-13.92,5.91-5.96,11.13-12.61,16.57-19.01,15.23-17.92,30.41-35.89,45.64-53.82,13.75-16.19,27.54-32.36,41.31-48.54,15.05-17.71,30.09-35.42,45.14-53.13,13.94-16.41,27.85-32.84,41.81-49.22,14.24-16.71,28.53-33.38,42.78-50.08,13.97-16.38,27.89-32.8,41.89-49.16,14.56-17.01,29.2-33.95,43.78-50.93,14.86-17.31,29.66-34.67,44.55-51.95,13.87-16.1,27.82-32.12,41.73-48.18,15.59-18.01,31.22-35.97,46.71-54.07,6.2-7.24,12.63-14.39,17.94-22.27,7.54-11.18,6.03-23.1-3.03-31.29-5.3-4.8-11.79-6.76-18.83-6.76-46.42-.04-92.83-.1-139.25.02-17.84.04-32.37,7.51-44.01,20.85-14.82,16.98-29.63,33.96-44.45,50.94-15.1,17.3-30.17,34.62-45.29,51.9-14.37,16.43-28.73,32.86-43.22,49.19-6.83,7.69-18.41,10.2-27.76,6.52-8.65-3.4-15.65-12.74-15.58-23.31.26-41.84.11-83.69.11-125.54,0-17.61-13.07-30.59-30.79-30.6-26.56,0-53.13,0-79.69,0-1.57,0-3.16-.07-4.7.16C14.68,174.22-.07,199.96,0,219.59c.32,87.97.14,175.95.14,263.93ZM434.28,772.33v.02c23.14,0,46.28.16,69.41-.07,11.39-.11,20.35-5.35,25.75-15.4,5.34-9.94,3.89-19.82-2.44-28.92-12.34-17.74-24.83-35.39-37.24-53.09-37.39-53.33-74.72-106.69-112.17-159.97-12.45-17.72-34.74-19.25-49.54-3.39-6.9,7.4-13.3,15.27-19.85,22.99-16.68,19.68-33.33,39.4-49.96,59.12-3.21,3.81-6.58,7.54-9.39,11.63-8.27,12.03-7.23,27.06,2.7,40.91,25.37,35.36,50.82,70.67,76.18,106.03,9.77,13.63,23.02,20.19,39.71,20.16,22.28-.05,44.56-.01,66.84-.01Z"/>
    <path class="cls-1" d="M.14,483.52C.14,395.54.32,307.57,0,219.59c-.07-19.63,14.68-45.37,42.67-49.58,1.54-.23,3.13-.16,4.7-.16,26.56,0,53.13,0,79.69,0,17.72,0,30.79,12.99,30.79,30.6,0,41.85.16,83.69-.11,125.54-.07,10.57,6.93,19.91,15.58,23.31,9.36,3.68,20.94,1.17,27.76-6.52,14.49-16.32,28.85-32.76,43.22-49.19,15.12-17.28,30.2-34.6,45.29-51.9,14.82-16.98,29.63-33.96,44.45-50.94,11.64-13.34,26.17-20.81,44.01-20.85,46.42-.12,92.83-.06,139.25-.02,7.04,0,13.53,1.97,18.83,6.76,9.06,8.2,10.57,20.11,3.03,31.29-5.31,7.88-11.74,15.03-17.94,22.27-15.49,18.09-31.12,36.06-46.71,54.07-13.9,16.06-27.86,32.08-41.73,48.18-14.89,17.28-29.69,34.64-44.55,51.95-14.58,16.99-29.22,33.93-43.78,50.93-14,16.35-27.92,32.78-41.89,49.16-14.25,16.7-28.54,33.37-42.78,50.08-13.96,16.39-27.88,32.81-41.81,49.22-15.04,17.71-30.08,35.43-45.14,53.13-13.76,16.19-27.55,32.35-41.31,48.54-15.22,17.93-30.4,35.89-45.64,53.82-5.45,6.41-10.67,13.05-16.57,19.01-9.19,9.27-20.5,14.16-33.74,13.92-5.83-.11-11.73.05-17.48-.76-10.81-1.52-17.95-10.24-17.96-21.45-.04-86.26-.03-172.52-.04-258.78,0-2.57,0-5.14,0-7.71h.02Z"/>
    <path class="cls-1" d="M434.28,772.33c-22.28,0-44.56-.04-66.84.01-16.69.04-29.94-6.53-39.71-20.16-25.36-35.37-50.81-70.67-76.18-106.03-9.94-13.85-10.98-28.87-2.7-40.91,2.82-4.09,6.18-7.82,9.39-11.63,16.63-19.72,33.28-39.44,49.96-59.12,6.55-7.72,12.94-15.6,19.85-22.99,14.81-15.86,37.09-14.33,49.54,3.39,37.45,53.28,74.79,106.65,112.17,159.97,12.41,17.7,24.89,35.34,37.24,53.09,6.33,9.11,7.78,18.98,2.44,28.92-5.4,10.06-14.36,15.29-25.75,15.4-23.14.22-46.27.07-69.41.07v-.02Z"/>
  </g>
  <circle class="cls-2" cx="78.91" cy="78.91" r="78.91"/>
</svg>