<svg xmlns="http://www.w3.org/2000/svg" version="1.0" width="664.000000pt" height="582.000000pt" viewBox="0 0 664.000000 582.000000" preserveAspectRatio="xMidYMid meet">
<metadata>
Created by potrace 1.16, written by Peter Selinger 2001-2019
</metadata>
<g transform="translate(0.000000,582.000000) scale(0.100000,-0.100000)" fill="#000000" stroke="none" style="&#10;    fill: #fff;&#10;">
<path d="M1465 2909 c-759 -1315 -1381 -2395 -1383 -2400 -2 -5 145 -9 355 -9 l358 0 1380 2391 c759 1315 1382 2395 1383 2400 2 5 -145 9 -355 9 l-358 0 -1380 -2391z"/>
<path d="M3788 5173 c-40 -70 -75 -131 -76 -135 -2 -5 373 -7 833 -6 l838 3 73 125 c40 69 73 128 74 133 0 4 -375 7 -834 7 l-835 0 -73 -127z"/>
<path d="M5352 4602 c-221 -383 -414 -713 -429 -732 -114 -150 -302 -287 -494 -358 l-74 -27 -785 -3 -785 -3 -158 -227 -158 -227 1018 -3 c1062 -3 1099 -2 1227 40 202 66 421 217 553 380 46 57 1267 1794 1297 1846 6 9 -77 12 -401 12 l-408 0 -403 -698z"/>
<path d="M3562 4782 c-40 -70 -86 -151 -103 -179 l-31 -53 839 0 838 0 73 128 c40 70 86 151 103 180 l31 52 -839 0 -838 0 -73 -128z"/>
<path d="M3304 4333 c-31 -54 -79 -135 -105 -180 l-48 -83 838 0 838 0 99 172 c54 95 101 176 102 180 2 4 -372 8 -832 8 l-835 0 -57 -97z"/>
<path d="M2981 3775 c-55 -96 -101 -177 -101 -180 0 -3 289 -4 643 -3 723 4 682 0 856 84 52 25 124 66 159 91 71 50 192 160 192 174 0 5 -352 9 -824 9 l-823 0 -102 -175z"/>
<path d="M5601 3244 c-110 -29 -246 -121 -322 -216 -143 -180 -115 -353 60 -366 211 -15 510 219 537 421 10 67 -23 132 -78 157 -51 23 -121 25 -197 4z" style="&#10;    fill: #f51a3a;&#10;"/>
<path d="M2317 2773 c-91 -155 -257 -445 -257 -448 0 -3 359 -6 798 -7 l797 -3 41 -22 c55 -29 101 -83 115 -135 14 -54 6 -150 -19 -214 -11 -27 -207 -361 -436 -742 -229 -381 -416 -695 -416 -698 0 -2 131 -3 291 -2 l291 3 519 899 c285 495 530 922 543 951 83 174 53 323 -79 390 l-59 30 -1062 3 c-584 1 -1065 -1 -1067 -5z"/>
<path d="M4349 1529 c-321 -557 -586 -1016 -587 -1021 -2 -4 153 -7 353 -6 l356 3 581 1005 c319 553 582 1011 585 1018 4 9 -70 12 -349 12 l-355 0 -584 -1011z"/>
<path d="M1911 2037 c-56 -96 -101 -177 -101 -181 0 -3 371 -6 825 -6 777 0 826 1 833 18 4 9 7 53 7 98 0 72 -3 86 -30 130 -24 37 -45 56 -90 79 l-59 30 -642 3 -642 3 -101 -174z"/>
<path d="M1634 1558 c-54 -95 -101 -176 -102 -180 -2 -4 373 -7 834 -6 l837 3 103 178 102 177 -837 0 -838 0 -99 -172z"/>
<path d="M1382 1122 c-40 -70 -86 -151 -103 -179 l-31 -53 839 0 838 0 73 128 c40 70 86 151 103 180 l31 52 -839 0 -838 0 -73 -128z"/>
<path d="M1147 713 c-63 -105 -117 -201 -117 -207 0 -3 375 -6 834 -6 l835 0 73 127 c40 70 75 131 76 135 2 4 -372 8 -831 8 l-836 0 -34 -57z"/>
</g>
</svg>